<?xml version="1.0" encoding="utf-8"?><svg xmlns="http://www.w3.org/2000/svg" xmlns:xlink="http://www.w3.org/1999/xlink"><symbol viewBox="0 0 94 94" id="back-to-top" xmlns="http://www.w3.org/2000/svg"><path d="M22 54l25.225-20L72 53.09M91 47c0 24.3-19.7 44-44 44S3 71.3 3 47 22.7 3 47 3s44 19.7 44 44z" stroke-width="6"/></symbol><symbol viewBox="0 0 80 80" id="envelope" xmlns="http://www.w3.org/2000/svg"><path d="M40 0C17.92 0 0 17.92 0 40s17.92 40 40 40 40-17.92 40-40S62.08 0 40 0zM16.027 52.373v-22.64c0-.24.026-.48.053-.746l22.613 14.106c.027.027.054.027.08.054.027.026.054.026.08.053.16.08.32.16.507.187h.053a2.03 2.03 0 001.12 0h.054c.16-.054.32-.107.506-.187.027-.027.054-.027.08-.053.027-.027.054-.027.08-.054l22.614-14.106c.053.24.053.48.053.746v22.64a4.29 4.29 0 01-4.293 4.294H20.32a4.29 4.29 0 01-4.293-4.294zM16.32 28.8L40 14.053 63.68 28.8H16.32z"/></symbol><symbol viewBox="0 0 111 73" id="envelope-closed" xmlns="http://www.w3.org/2000/svg"><path d="M9.3 69.5l22.9-39.3m47.4 0l22.9 39.3M2.4 7.2l53 39.6 53-39.6m-6.3 62.3H8.7C5.5 69.5 3 67 3 63.8V8.7C3 5.5 5.5 3 8.7 3h93.4c3.1 0 5.7 2.5 5.7 5.7v55.1c0 3.2-2.6 5.7-5.7 5.7z"/></symbol><symbol viewBox="0 0 80 80" id="facebook" xmlns="http://www.w3.org/2000/svg"><path d="M40 0C17.897 0 0 17.897 0 40s17.897 40 40 40 40-17.897 40-40S62.103 0 40 0zm11.052 24.456h-5.847c-.927 0-2.282.5-2.282 2.496v5.419h8.057l-.926 9.198h-7.13v26.167H32.085V41.57h-5.134V32.37h5.134v-5.918c0-4.278 1.996-10.91 10.909-10.91h7.985v8.913h.072z"/></symbol><symbol viewBox="0 0 80 80" id="linkedin" xmlns="http://www.w3.org/2000/svg"><path d="M40 0C17.929 0 0 17.929 0 40s17.929 40 40 40 40-17.929 40-40S62.071 0 40 0zM29.5 59.643h-9.643V30.857h9.572v28.786h.071zm-4.786-32.714c-3.285 0-5.357-2.215-5.357-5 0-2.858 2.143-5 5.429-5 3.285 0 5.285 2.142 5.357 5-.072 2.785-2.143 5-5.429 5zM64 59.643h-9.571V44.214c0-3.857-1.358-6.5-4.858-6.5-2.642 0-4.214 1.786-4.928 3.5-.214.643-.286 1.5-.286 2.357v16.072h-9.571s.143-26.072 0-28.786h9.571v4.072C45.643 33 47.93 30.143 53 30.143c6.286 0 11 4.143 11 12.928v16.572zM44.357 35v-.071c0 .071-.071.071 0 .071z"/></symbol><symbol viewBox="0 0 80 80" id="twitter" xmlns="http://www.w3.org/2000/svg"><path d="M40 0C17.929 0 0 17.929 0 40s17.929 40 40 40 40-17.929 40-40S62.071 0 40 0zm19.857 33.571v1.215C59.857 47.429 50.214 62 32.571 62c-5.428 0-10.428-1.571-14.714-4.286.786.072 1.5.143 2.286.143 4.5 0 8.643-1.571 11.928-4.071-4.214-.072-7.714-2.857-8.928-6.643.571.143 1.214.143 1.786.143.857 0 1.714-.143 2.5-.357-4.358-.858-7.715-4.715-7.715-9.358v-.142a9.927 9.927 0 004.357 1.214 9.592 9.592 0 01-3-12.786c4.715 5.786 11.786 9.643 19.715 10a11.093 11.093 0 01-.215-2.214c0-5.286 4.286-9.572 9.572-9.572 2.786 0 5.214 1.143 7 3a20.107 20.107 0 006.071-2.285C62.5 27 61 28.929 59 30.07c1.929-.214 3.786-.785 5.5-1.5-1.214 2-2.786 3.715-4.643 5z"/></symbol><symbol viewBox="0 0 22 22" id="website" xmlns="http://www.w3.org/2000/svg"><path d="M20.25 11a.75.75 0 001.5 0h-1.5zM11 21.75a.75.75 0 000-1.5v1.5zM12.597.596a.75.75 0 00-1.194.908l1.194-.908zM14.25 11a.75.75 0 001.5 0h-1.5zM9.403 21.404a.75.75 0 101.194-.908l-1.194.908zm1.194-19.9A.75.75 0 009.403.596l1.194.908zM1.63 13.75a.75.75 0 000 1.5v-1.5zm9.37 1.5a.75.75 0 000-1.5v1.5zm-9.37-8.5a.75.75 0 000 1.5v-1.5zm18.74 1.5a.75.75 0 000-1.5v1.5zm.509 8.667l.393-.639-.393.639zm-.045 1.101l.085.745-.085-.745zm-2.567.291l-.084-.745-.406.046-.181.365.671.334zm-1.151 2.312l-.671-.334.671.334zm-1.05-.334l-.735.15v.001l.735-.151zm-1.255-6.116l.735-.15v-.002l-.735.152zm.75-.525l-.393.638.393-.638zM21.75 11C21.75 5.063 16.937.25 11 .25v1.5A9.25 9.25 0 0120.25 11h1.5zM11 .25C5.063.25.25 5.063.25 11h1.5A9.25 9.25 0 0111 1.75V.25zM.25 11c0 5.937 4.813 10.75 10.75 10.75v-1.5A9.25 9.25 0 011.75 11H.25zM12 1.05c-.597.454-.597.453-.598.453l.004.005.02.027.084.12c.075.11.184.275.317.495.266.439.625 1.09.984 1.922A17.534 17.534 0 0114.25 11h1.5c0-3.125-.781-5.715-1.561-7.522a17.35 17.35 0 00-1.079-2.106 12.066 12.066 0 00-.508-.77L12.599.6V.597h-.001L12 1.05zm-2 19.9c.597-.454.597-.453.598-.453l-.004-.005a10.672 10.672 0 01-.421-.642 15.873 15.873 0 01-.984-1.922A17.534 17.534 0 017.75 11h-1.5c0 3.125.781 5.715 1.561 7.522.39.905.782 1.617 1.079 2.106a12.118 12.118 0 00.499.757l.009.012a.17.17 0 01.003.004v.002h.001L10 20.95zM7.75 11c0-2.875.719-5.26 1.439-6.928.36-.833.718-1.483.984-1.922a10.672 10.672 0 01.401-.615l.02-.027.004-.005L10 1.05C9.403.596 9.403.597 9.402.597L9.4.6a1.673 1.673 0 00-.043.057 12.11 12.11 0 00-.469.716c-.296.49-.687 1.201-1.078 2.106A19.034 19.034 0 006.25 11h1.5zm-6.12 4.25H11v-1.5H1.63v1.5zm0-7h18.74v-1.5H1.63v1.5zm18.856 9.306c.006.003-.004.002-.003-.027 0-.018.008-.073.06-.137a.327.327 0 01.206-.12l.17 1.491c.706-.08 1.042-.666 1.063-1.172a1.48 1.48 0 00-.71-1.313l-.786 1.278zm.264-.283l-2.567.29.169 1.491 2.567-.29-.17-1.491zm-3.154.702l-1.151 2.312 1.342.668 1.151-2.312-1.342-.668zm-1.152 2.312a.328.328 0 01.183-.153.244.244 0 01.15-.01c.028.01.025.019.024.012l-1.47.302c.116.561.524.967.99 1.116.484.154 1.15.038 1.467-.6l-1.344-.667zm.357-.15l-1.255-6.117-1.47.302 1.255 6.116 1.47-.302zm-1.255-6.117c0 .002.006.034-.013.085a.3.3 0 01-.11.142.3.3 0 01-.172.055.175.175 0 01-.083-.018l.787-1.277c-.43-.264-.969-.286-1.393.01-.424.297-.587.811-.486 1.306l1.47-.303zm-.378.265l5.318 3.27.786-1.277-5.318-3.27-.786 1.277z"/></symbol><symbol viewBox="0 0 40 40" id="wiki" xmlns="http://www.w3.org/2000/svg"><path d="M20 40c11.046 0 20-8.954 20-20S31.046 0 20 0 0 8.954 0 20s8.954 20 20 20zm.561-16.59c-1.05 2.274-2.463 5.306-3.17 6.683-.692 1.27-1.267 1.1-1.723.034-.764-1.896-1.916-4.482-3.076-7.084-1.242-2.786-2.491-5.59-3.281-7.585-.283-.71-.496-1.167-.697-1.346-.203-.178-.623-.284-1.262-.32-.236-.029-.352-.09-.352-.188v-.538l.059-.054c1.039-.005 6.076 0 6.076 0l.057.054v.513c0 .14-.084.208-.253.208l-.635.036c-.545.035-.818.194-.818.516 0 .16.06.39.187.71 1.217 3.128 5.42 12.437 5.42 12.437l.154.055 2.712-5.686-.542-1.262-1.866-3.858s-.357-.773-.481-1.03l-.166-.347c-.655-1.373-.695-1.457-1.462-1.565-.233-.027-.352-.06-.352-.176v-.554l.067-.053h4.829l.127.044v.533c0 .124-.085.177-.255.177l-.347.056c-.89.072-.744.45-.153 1.68l1.78 3.845 1.978-4.142c.33-.757.262-.947.125-1.12-.08-.099-.344-.26-.914-.283l-.226-.025a.249.249 0 01-.163-.06.184.184 0 01-.075-.152v-.506l.068-.053c1.403-.01 4.548 0 4.548 0l.067.053v.516c0 .143-.067.21-.217.21-.727.036-.88.113-1.151.52-.135.219-.422.695-.727 1.227l-2.589 5.052-.073.16 3.141 6.751.192.057 4.945-12.339c.173-.499.145-.853-.072-1.058-.222-.203-.39-.322-.964-.348l-.473-.02a.277.277 0 01-.17-.053.182.182 0 01-.082-.14v-.516l.067-.053h5.58l.047.053v.517c0 .14-.083.213-.235.213-.73.035-1.268.213-1.623.497-.354.302-.627.728-.829 1.262 0 0-4.548 10.944-6.104 14.586-.59 1.19-1.184 1.084-1.69-.037-.639-1.375-1.978-4.435-2.958-6.705z" clip-rule="evenodd"/></symbol></svg>